<?xml version="1.0" encoding="iso-8859-1"?>
<!-- Generator: Adobe Illustrator 22.1.0, SVG Export Plug-In . SVG Version: 6.00 Build 0)  -->
<svg xmlns="http://www.w3.org/2000/svg" xmlns:xlink="http://www.w3.org/1999/xlink" version="1.1" id="Layer_1_1_" x="0px" y="0px" viewBox="0 0 64 64" style="enable-background:new 0 0 64 64;" xml:space="preserve" width="512" height="512">
<g>
	<g>
		<path style="fill:#DFB28B;" d="M49.98,52.58L51.29,56l-0.06,0.21c1.91,0.51,3.49,1.95,4.14,3.89L56,62H27l0.63-1.9    c0.82-2.45,3.11-4.1,5.69-4.1H35l0.67-2l0.42-1.26C36.63,51.1,38.16,50,39.88,50H43h3.24C47.9,50,49.39,51.02,49.98,52.58z"/>
		<path style="fill:#B27946;" d="M16,54h19.67L35,56h-1.68c-2.58,0-4.87,1.65-5.69,4.1L27,62H8l1.54-4.11    c0.88-2.34,3.12-3.89,5.62-3.89H16z"/>
		<path style="fill:#FFEAA7;" d="M29,15c0,1.9,0.66,3.64,1.77,5.01c-0.85,3.75-4.05,6.61-7.96,6.95C22.54,26.99,22.27,27,22,27    c-4.97,0-9-4.03-9-9s4.03-9,9-9c3.73,0,6.93,2.27,8.29,5.5V15H29z"/>
		<path style="fill:#FCD770;" d="M22.81,26.96c3.91-0.34,7.11-3.2,7.96-6.95c0.17,0.23,0.37,0.44,0.57,0.65    c0.88,0.87,1.95,1.54,3.16,1.94c-0.08,0.16-0.15,0.32-0.22,0.49c-0.86,2.08-1.16,4.24-0.97,6.22c-1.19-0.11-2.46-0.05-3.72,0.21    C29.86,28.73,30,27.88,30,27h-6c-0.4,0-0.79,0.03-1.17,0.08L22.81,26.96z"/>
		<path style="fill:#FCD770;" d="M13.66,24.34c-1.17-1.17-2.7-1.98-4.41-2.24C8.42,20.45,7.29,19.06,6,18    c1.54-1.27,2.85-3,3.72-5.09c0.86-2.09,1.16-4.24,0.97-6.22c1.98,0.19,4.14-0.11,6.22-0.97C19,4.85,20.73,3.54,22,2    c1.27,1.54,3,2.85,5.09,3.72c2.09,0.86,4.24,1.16,6.22,0.97c-0.19,1.98,0.11,4.13,0.97,6.22c0.28,0.68,0.61,1.32,0.98,1.92v0.18    C35.17,15,35.09,15,35,15h-4.71v-0.5C28.93,11.27,25.73,9,22,9c-4.97,0-9,4.03-9,9s4.03,9,9,9c0.27,0,0.54-0.01,0.81-0.04    l0.02,0.12c-1.74,0.26-3.3,1.08-4.49,2.26C16.9,30.79,16,32.79,16,35v-5C16,27.79,15.1,25.79,13.66,24.34z"/>
		<path style="fill:#B4DD7F;" d="M34.5,22.6c-1.21-0.4-2.28-1.07-3.16-1.94c-0.2-0.21-0.4-0.42-0.57-0.65C29.66,18.64,29,16.9,29,15    h1.29H35c0.09,0,0.17,0,0.26,0.01c2.11,0.06,4.01,0.95,5.4,2.33C42.1,18.79,43,20.79,43,23h-6C36.13,23,35.29,22.86,34.5,22.6z"/>
		<path style="fill:#B4DD7F;" d="M51,11h6c0,2.21-0.9,4.21-2.34,5.66C53.21,18.1,51.21,19,49,19h-6c0-2.21,0.9-4.21,2.34-5.66    C46.79,11.9,48.79,11,51,11z"/>
		<path style="fill:#B4DD7F;" d="M51,30h6c0,2.21-0.9,4.21-2.34,5.66C53.21,37.1,51.21,38,49,38h-6c0-2.21,0.9-4.21,2.34-5.66    C46.79,30.9,48.79,30,51,30z"/>
		<path style="fill:#B4DD7F;" d="M43,42h-6c-2.07,0-3.96-0.79-5.38-2.08c-0.1-0.08-0.19-0.17-0.28-0.26C29.9,38.21,29,36.21,29,34h6    c2.21,0,4.21,0.9,5.66,2.34C42.1,37.79,43,39.79,43,42z"/>
		<path style="fill:#B4DD7F;" d="M24,42h6c0,2.21-0.9,4.21-2.34,5.66C26.21,49.1,24.21,50,22,50h-6c0-2.21,0.9-4.21,2.34-5.66    C19.79,42.9,21.79,42,24,42z"/>
		<path style="fill:#B4DD7F;" d="M16,44h-6c-2.21,0-4.21-0.9-5.66-2.34C2.9,40.21,2,38.21,2,36h6c2.21,0,4.21,0.9,5.66,2.34    C15.1,39.79,16,41.79,16,44z"/>
		<path style="fill:#B4DD7F;" d="M29.59,29.52c-0.39,1.2-1.06,2.27-1.93,3.14C26.21,34.1,24.21,35,22,35h-6    c0-2.21,0.9-4.21,2.34-5.66c1.19-1.18,2.75-2,4.49-2.26C23.21,27.03,23.6,27,24,27h6C30,27.88,29.86,28.73,29.59,29.52z"/>
		<path style="fill:#B4DD7F;" d="M9.25,22.1c1.71,0.26,3.24,1.07,4.41,2.24C15.1,25.79,16,27.79,16,30h-6    c-2.21,0-4.21-0.9-5.66-2.34C2.9,26.21,2,24.21,2,22h6C8.42,22,8.84,22.03,9.25,22.1z"/>
	</g>
	<g>
		<rect x="61" y="61" width="2" height="2"/>
		<rect x="1" y="61" width="2" height="2"/>
		<path d="M56.315,59.786c-0.679-2.038-2.235-3.585-4.161-4.315l-1.239-3.251C50.182,50.294,48.305,49,46.243,49H44v-6v-1v-3h5    c4.963,0,9-4.037,9-9v-1h-7c-2.826,0-5.349,1.312-7,3.355V24v-1v-3h5c4.963,0,9-4.037,9-9v-1h-7c-4.461,0-8.164,3.266-8.869,7.53    c-1.461-1.9-3.656-3.207-6.163-3.476c-0.285-0.491-0.546-0.999-0.763-1.524c-0.771-1.859-1.08-3.847-0.896-5.747l0.117-1.209    l-1.209,0.117c-1.906,0.182-3.889-0.127-5.747-0.896c-1.859-0.77-3.483-1.956-4.697-3.431L22,0.427l-0.772,0.938    c-1.214,1.475-2.838,2.661-4.697,3.431c-1.858,0.77-3.843,1.078-5.747,0.896L9.574,5.574l0.117,1.209    c0.184,1.9-0.126,3.888-0.896,5.747c-0.77,1.859-1.956,3.483-3.431,4.697L4.427,18l0.938,0.772C6.13,19.402,6.813,20.163,7.41,21    H1v1c0,4.963,4.037,9,9,9h5v4v1v2.355C13.349,36.312,10.826,35,8,35H1v1c0,4.963,4.037,9,9,9h5v5v1v2.012    c-2.839,0.066-5.397,1.863-6.396,4.53L7.307,61H5v2h54v-2h-2.28L56.315,59.786z M51,31h4.929c-0.486,3.388-3.408,6-6.929,6h-4.929    C44.558,33.612,47.479,31,51,31z M10,43c-3.521,0-6.442-2.612-6.929-6H8c3.521,0,6.442,2.612,6.929,6H10z M49.047,52.933    l0.793,2.08C49.784,55.012,49.731,55,49.676,55H44v2h5.676c2.155,0,4.062,1.374,4.743,3.419L54.613,61H28.387l0.194-0.581    C29.263,58.374,31.169,57,33.324,57H42v-2h-5.613l0.649-1.948C37.446,51.824,38.59,51,39.883,51h6.36    C47.479,51,48.606,51.776,49.047,52.933z M42,36.355C40.349,34.312,37.826,33,35,33h-6.311c0.683-0.761,1.242-1.633,1.637-2.594    c0.97-0.151,1.94-0.189,2.892-0.098l1.208,0.117l-0.117-1.209c-0.173-1.792,0.108-3.658,0.785-5.424    C35.708,23.926,36.345,24,37,24h5V36.355z M41.929,41H37c-3.521,0-6.442-2.612-6.929-6H35C38.521,35,41.442,37.612,41.929,41z     M16.969,29.396c-0.08-1.203-0.396-2.339-0.905-3.367c0.876,0.65,1.856,1.166,2.918,1.503    C18.219,28.047,17.543,28.678,16.969,29.396z M27.972,26c1.408-1.051,2.538-2.464,3.238-4.119c0.6,0.506,1.27,0.929,1.989,1.266    c-0.627,1.66-0.956,3.398-0.941,5.111c-0.455-0.002-0.91,0.02-1.366,0.062C30.956,27.888,31,27.449,31,27v-1H27.972z     M29.685,20.223C28.707,23.604,25.572,26,22,26c-4.411,0-8-3.589-8-8s3.589-8,8-8c2.886,0,5.499,1.546,6.917,4H28v1    C28,16.948,28.629,18.749,29.685,20.223z M24,28h4.929c-0.486,3.388-3.408,6-6.929,6h-4.929C17.558,30.612,20.479,28,24,28z     M51,12h4.929c-0.486,3.388-3.408,6-6.929,6h-4.929C44.558,14.612,47.479,12,51,12z M41.929,22H37c-3.521,0-6.442-2.612-6.929-6    H35C38.521,16,41.442,18.612,41.929,22z M10.643,13.296c0.742-1.79,1.116-3.688,1.1-5.554c1.861,0.005,3.764-0.357,5.554-1.1    c1.79-0.741,3.396-1.819,4.704-3.149c1.308,1.33,2.914,2.408,4.704,3.149c1.79,0.742,3.691,1.1,5.554,1.1    c-0.017,1.865,0.357,3.764,1.1,5.554c0.099,0.238,0.213,0.471,0.324,0.704h-2.523C29.564,10.354,25.988,8,22,8    c-5.514,0-10,4.486-10,10c0,1.668,0.416,3.239,1.142,4.624c-0.959-0.671-2.053-1.16-3.234-1.416    C9.247,20.019,8.435,18.927,7.493,18C8.823,16.693,9.901,15.086,10.643,13.296z M10,29c-3.521,0-6.442-2.612-6.929-6H8    c3.521,0,6.442,2.612,6.929,6H10z M22,51c4.963,0,9-4.037,9-9v-1h-7c-2.826,0-5.349,1.312-7,3.355V44v-8h5    c2.306,0,4.406-0.879,6-2.311V34c0,4.963,4.037,9,9,9h5v6h-2.117c-2.155,0-4.062,1.374-4.743,3.419L34.946,53H17v-2H22z     M17.071,49c0.486-3.388,3.408-6,6.929-6h4.929c-0.486,3.388-3.408,6-6.929,6H17.071z M10.477,58.244    C11.204,56.304,13.085,55,15.158,55h18.166c-3.018,0-5.687,1.924-6.64,4.786L26.28,61H9.443L10.477,58.244z"/>
		<rect x="14" y="57" width="2" height="2"/>
		<rect x="20" y="57" width="2" height="2"/>
	</g>
</g>
</svg>
